<svg version="1.1" id="Layer_1" xmlns="http://www.w3.org/2000/svg" xmlns:xlink="http://www.w3.org/1999/xlink" x="0px" y="0px"
	 width="100%" viewBox="0 0 500 500" enable-background="new 0 0 500 500" xml:space="preserve">
<path fill="none" opacity="1.000000" stroke="none" 
	d="
M229.000000,501.000000 
	C152.666687,501.000000 76.833366,501.000000 1.000041,501.000000 
	C1.000027,334.333405 1.000027,167.666779 1.000014,1.000130 
	C167.666565,1.000087 334.333130,1.000087 500.999756,1.000043 
	C500.999847,167.666519 500.999847,334.333038 500.999939,500.999786 
	C410.500000,501.000000 320.000000,501.000000 229.000000,501.000000 
M190.067001,232.567032 
	C218.221954,204.439392 246.377182,176.312027 274.530792,148.183060 
	C275.590851,147.123917 276.714905,146.115616 277.672394,144.969391 
	C280.953583,141.041428 280.970673,137.069855 277.497162,133.318192 
	C274.672455,130.267303 271.709015,127.319809 268.591187,124.571396 
	C264.180389,120.683228 259.992493,120.772858 255.797348,124.955421 
	C221.128204,159.520676 186.510590,194.137634 151.877914,228.739471 
	C151.642471,228.974701 151.400681,229.205688 151.185486,229.458771 
	C148.068329,233.124802 147.899918,237.674515 151.109634,241.217041 
	C154.011658,244.419998 157.113144,247.468475 160.343323,250.341476 
	C164.795746,254.301544 168.326523,254.159714 172.583450,249.993805 
	C178.295700,244.403717 183.910599,238.714142 190.067001,232.567032 
M257.506104,223.993698 
	C254.912582,221.405670 252.362793,218.771881 249.715103,216.240524 
	C245.931747,212.623398 241.973145,212.508926 238.340302,216.116623 
	C221.678146,232.663467 205.054184,249.249008 188.472000,265.875977 
	C184.267990,270.091370 184.141525,273.688843 188.037857,278.136810 
	C190.446243,280.886169 193.159134,283.374634 195.798035,285.915070 
	C201.152710,291.069977 205.182343,291.075836 210.382782,285.903839 
	C219.829651,276.508636 229.237091,267.073792 238.667358,257.661896 
	C243.618912,252.719971 244.295303,252.698959 249.111908,257.507690 
	C257.597778,265.979675 266.008118,274.528076 274.553864,282.939026 
	C278.955933,287.271698 282.773743,287.245697 287.206726,283.065369 
	C289.870972,280.552917 292.436462,277.930664 294.963135,275.278473 
	C300.100372,269.885956 300.063629,266.544342 294.758911,261.225494 
	C282.527802,248.961823 270.259460,236.735291 257.506104,223.993698 
M326.600616,219.899399 
	C313.403503,206.706970 300.227081,193.493790 286.997894,180.333618 
	C282.482910,175.842209 278.788177,175.732315 274.468231,179.878143 
	C271.463898,182.761383 268.523468,185.716751 265.659882,188.739716 
	C261.737854,192.880005 261.656128,196.885849 265.765503,201.015793 
	C287.035889,222.392487 308.361450,243.714661 329.744019,264.979126 
	C333.768738,268.981598 337.354889,269.029541 341.663452,265.321930 
	C344.687897,262.719330 347.492371,259.843872 350.247986,256.950195 
	C354.483673,252.502243 354.404083,247.767197 350.060760,243.385315 
	C342.437073,235.693939 334.757141,228.058304 326.600616,219.899399 
M146.092285,353.758240 
	C147.395248,353.489532 148.718033,353.292816 149.998062,352.940674 
	C159.593292,350.300995 166.483017,341.778259 167.380722,331.485779 
	C168.263519,321.363892 162.857590,311.896729 153.679489,307.491547 
	C144.695480,303.179504 134.204697,304.988708 126.970543,312.097717 
	C119.956085,318.990845 117.797997,329.679504 121.576439,338.813812 
	C125.554573,348.430847 134.017593,353.804291 146.092285,353.758240 
M320.665253,353.005737 
	C322.942047,353.005737 325.218872,353.005737 327.744843,353.005737 
	C327.851837,350.973816 327.984772,349.515900 327.995087,348.057129 
	C328.028015,343.397064 327.743561,338.710907 328.181580,334.091736 
	C328.317780,332.655426 330.363739,331.400238 331.535400,330.062134 
	C332.629669,331.320099 334.136200,332.418579 334.702057,333.880981 
	C335.266113,335.338776 334.911407,337.161530 334.916351,338.824341 
	C334.929993,343.416779 334.921082,348.009247 334.921082,352.658325 
	C338.875122,352.658325 342.102844,352.658325 345.750763,352.658325 
	C345.750763,345.196625 346.137268,338.048401 345.625275,330.965088 
	C345.234070,325.553711 341.775482,321.182556 336.454254,320.429504 
	C331.919525,319.787750 327.084839,321.265228 322.382874,321.805145 
	C322.408752,322.331909 322.434631,322.858643 322.460541,323.385376 
	C321.628632,322.848480 320.806183,322.296265 319.963409,321.776978 
	C311.395081,316.497498 300.767059,321.178314 299.751801,331.185883 
	C299.038208,338.219818 299.613892,345.384552 299.613892,352.693542 
	C303.357208,352.693542 306.746674,352.693542 310.694092,352.693542 
	C310.694092,346.606934 310.667084,340.817291 310.707214,335.028076 
	C310.723450,332.680939 310.645081,329.692444 314.012329,330.286682 
	C315.266418,330.507965 316.810486,333.190643 316.948120,334.856201 
	C317.344330,339.650299 316.909546,344.509583 317.213348,349.317200 
	C317.293915,350.592194 318.860077,351.773376 320.665253,353.005737 
M250.386078,326.237518 
	C249.711807,335.035339 249.037552,343.833130 248.364777,352.611389 
	C253.000870,352.611389 256.232330,352.611389 259.854340,352.611389 
	C259.854340,348.247772 259.420380,344.214142 259.983673,340.324982 
	C260.486969,336.850250 257.200226,330.591736 262.929016,330.471069 
	C268.958527,330.344055 265.596741,336.679718 266.092499,340.093811 
	C266.678436,344.129211 266.230042,348.314758 266.230042,352.561584 
	C270.179413,352.561584 273.522949,352.561584 277.129456,352.561584 
	C277.129456,346.627350 276.822632,341.112244 277.293335,335.664307 
	C277.461517,333.717590 279.366577,330.495300 280.730011,330.358490 
	C284.124573,330.017975 284.015259,333.244171 284.018311,335.780609 
	C284.025024,341.382385 284.020416,346.984131 284.020416,352.698364 
	C287.947052,352.698364 291.185852,352.698364 294.943695,352.698364 
	C294.943695,346.109314 294.382538,339.760742 295.070007,333.550385 
	C296.214600,323.210205 282.309052,315.313568 274.345306,321.739288 
	C273.291077,322.589905 270.606842,322.459656 269.252625,321.724396 
	C262.312531,317.956207 255.976318,319.139435 250.386078,326.237518 
M173.869995,326.486847 
	C172.935760,328.766968 171.252945,331.028076 171.194412,333.330475 
	C170.912125,344.436432 171.067307,355.553497 171.067307,366.734802 
	C174.807312,366.734802 178.180817,366.734802 181.850510,366.734802 
	C181.850510,363.103973 181.837250,359.797546 181.853256,356.491211 
	C181.886307,349.664185 181.707840,342.825500 182.059189,336.014465 
	C182.283356,331.669006 185.759720,329.101135 189.918076,329.428528 
	C193.852570,329.738342 196.746597,332.843231 196.709015,336.714355 
	C196.669296,340.804749 193.676544,343.794830 189.347473,343.950073 
	C187.936035,344.000702 186.515472,343.796387 185.077972,343.707367 
	C185.077972,346.943542 185.077972,349.892426 185.077972,352.768707 
	C193.628754,355.534760 202.594070,351.629395 206.019455,343.801483 
	C209.517227,335.808167 206.499100,326.377625 199.063507,322.066528 
	C191.431015,317.641266 181.465591,319.180725 173.869995,326.486847 
M355.176849,323.617981 
	C353.426300,326.196991 351.227814,328.582977 350.016144,331.394226 
	C347.289490,337.720459 349.687286,345.030334 355.619873,350.065216 
	C361.008423,354.638306 368.073547,355.192261 374.095459,351.513672 
	C382.776764,346.210510 385.358734,336.178467 380.178009,327.880402 
	C374.600891,318.947510 365.326965,317.147766 355.176849,323.617981 
M221.069656,340.908173 
	C221.069656,337.333679 221.069656,333.759155 221.069656,329.943512 
	C223.542618,329.943512 225.672958,329.943512 228.028687,329.943512 
	C228.028687,326.589386 228.028687,323.484680 228.028687,320.226074 
	C225.618729,320.084595 223.361053,319.952057 220.980057,319.812286 
	C220.845596,317.137573 220.725632,314.751221 220.611130,312.473450 
	C216.866425,312.473450 213.770599,312.473450 210.371307,312.473450 
	C210.371307,322.835236 210.112457,332.933441 210.479187,343.008881 
	C210.665955,348.139771 213.912033,351.705780 219.068008,352.652771 
	C221.936813,353.179688 224.981812,352.747375 228.183731,352.747375 
	C228.183731,349.612946 228.183731,346.513580 228.183731,343.733826 
	C225.770966,343.012970 223.610977,342.367615 221.069656,340.908173 
M243.555069,338.495300 
	C243.555130,334.173187 243.268631,329.826691 243.633392,325.535583 
	C244.021408,320.971161 242.172409,319.509857 237.909851,320.112305 
	C236.172546,320.357849 234.393112,320.305359 232.541321,320.392792 
	C232.541321,331.459625 232.541321,342.004761 232.541321,352.687378 
	C236.277557,352.687378 239.664474,352.687378 243.553940,352.687378 
	C243.553940,348.073822 243.553940,343.781799 243.555069,338.495300 
M234.617569,306.051636 
	C231.202591,308.644379 230.819626,311.970917 233.150696,315.229614 
	C235.159119,318.037262 238.603607,318.690369 240.989365,316.280121 
	C242.637955,314.614594 243.938538,311.171143 243.372086,309.066620 
	C242.409012,305.488556 239.077713,304.272797 234.617569,306.051636 
z"/>
<path fill="#71A0E0" opacity="1.000000" stroke="none" 
	d="
M189.817139,232.817169 
	C183.910599,238.714142 178.295700,244.403717 172.583450,249.993805 
	C168.326523,254.159714 164.795746,254.301544 160.343323,250.341476 
	C157.113144,247.468475 154.011658,244.419998 151.109634,241.217041 
	C147.899918,237.674515 148.068329,233.124802 151.185486,229.458771 
	C151.400681,229.205688 151.642471,228.974701 151.877914,228.739471 
	C186.510590,194.137634 221.128204,159.520676 255.797348,124.955421 
	C259.992493,120.772858 264.180389,120.683228 268.591187,124.571396 
	C271.709015,127.319809 274.672455,130.267303 277.497162,133.318192 
	C280.970673,137.069855 280.953583,141.041428 277.672394,144.969391 
	C276.714905,146.115616 275.590851,147.123917 274.530792,148.183060 
	C246.377182,176.312027 218.221954,204.439392 189.817139,232.817169 
z"/>
<path fill="#71A0E0" opacity="1.000000" stroke="none" 
	d="
M257.756165,224.243698 
	C270.259460,236.735291 282.527802,248.961823 294.758911,261.225494 
	C300.063629,266.544342 300.100372,269.885956 294.963135,275.278473 
	C292.436462,277.930664 289.870972,280.552917 287.206726,283.065369 
	C282.773743,287.245697 278.955933,287.271698 274.553864,282.939026 
	C266.008118,274.528076 257.597778,265.979675 249.111908,257.507690 
	C244.295303,252.698959 243.618912,252.719971 238.667358,257.661896 
	C229.237091,267.073792 219.829651,276.508636 210.382782,285.903839 
	C205.182343,291.075836 201.152710,291.069977 195.798035,285.915070 
	C193.159134,283.374634 190.446243,280.886169 188.037857,278.136810 
	C184.141525,273.688843 184.267990,270.091370 188.472000,265.875977 
	C205.054184,249.249008 221.678146,232.663467 238.340302,216.116623 
	C241.973145,212.508926 245.931747,212.623398 249.715103,216.240524 
	C252.362793,218.771881 254.912582,221.405670 257.756165,224.243698 
z"/>
<path fill="#71A0E0" opacity="1.000000" stroke="none" 
	d="
M326.850708,220.149353 
	C334.757141,228.058304 342.437073,235.693939 350.060760,243.385315 
	C354.404083,247.767197 354.483673,252.502243 350.247986,256.950195 
	C347.492371,259.843872 344.687897,262.719330 341.663452,265.321930 
	C337.354889,269.029541 333.768738,268.981598 329.744019,264.979126 
	C308.361450,243.714661 287.035889,222.392487 265.765503,201.015793 
	C261.656128,196.885849 261.737854,192.880005 265.659882,188.739716 
	C268.523468,185.716751 271.463898,182.761383 274.468231,179.878143 
	C278.788177,175.732315 282.482910,175.842209 286.997894,180.333618 
	C300.227081,193.493790 313.403503,206.706970 326.850708,220.149353 
z"/>
<path fill="#282828" opacity="1.000000" stroke="none" 
	d="
M145.661591,353.795471 
	C134.017593,353.804291 125.554573,348.430847 121.576439,338.813812 
	C117.797997,329.679504 119.956085,318.990845 126.970543,312.097717 
	C134.204697,304.988708 144.695480,303.179504 153.679489,307.491547 
	C162.857590,311.896729 168.263519,321.363892 167.380722,331.485779 
	C166.483017,341.778259 159.593292,350.300995 149.998062,352.940674 
	C148.718033,353.292816 147.395248,353.489532 145.661591,353.795471 
M155.389801,331.819031 
	C156.262482,322.283081 149.026505,315.224304 140.735046,317.523132 
	C135.024246,319.106476 131.369843,324.253174 131.690872,330.260437 
	C132.009338,336.219604 136.358307,340.989471 142.200958,341.787689 
	C147.954971,342.573792 152.737625,339.180420 155.389801,331.819031 
z"/>
<path fill="#73A1E0" opacity="1.000000" stroke="none" 
	d="
M320.204651,353.001678 
	C318.860077,351.773376 317.293915,350.592194 317.213348,349.317200 
	C316.909546,344.509583 317.344330,339.650299 316.948120,334.856201 
	C316.810486,333.190643 315.266418,330.507965 314.012329,330.286682 
	C310.645081,329.692444 310.723450,332.680939 310.707214,335.028076 
	C310.667084,340.817291 310.694092,346.606934 310.694092,352.693542 
	C306.746674,352.693542 303.357208,352.693542 299.613892,352.693542 
	C299.613892,345.384552 299.038208,338.219818 299.751801,331.185883 
	C300.767059,321.178314 311.395081,316.497498 319.963409,321.776978 
	C320.806183,322.296265 321.628632,322.848480 322.460541,323.385376 
	C322.434631,322.858643 322.408752,322.331909 322.382874,321.805145 
	C327.084839,321.265228 331.919525,319.787750 336.454254,320.429504 
	C341.775482,321.182556 345.234070,325.553711 345.625275,330.965088 
	C346.137268,338.048401 345.750763,345.196625 345.750763,352.658325 
	C342.102844,352.658325 338.875122,352.658325 334.921082,352.658325 
	C334.921082,348.009247 334.929993,343.416779 334.916351,338.824341 
	C334.911407,337.161530 335.266113,335.338776 334.702057,333.880981 
	C334.136200,332.418579 332.629669,331.320099 331.535400,330.062134 
	C330.363739,331.400238 328.317780,332.655426 328.181580,334.091736 
	C327.743561,338.710907 328.028015,343.397064 327.995087,348.057129 
	C327.984772,349.515900 327.851837,350.973816 327.744843,353.005737 
	C325.218872,353.005737 322.942047,353.005737 320.204651,353.001678 
z"/>
<path fill="#73A1E1" opacity="1.000000" stroke="none" 
	d="
M250.594421,325.907043 
	C255.976318,319.139435 262.312531,317.956207 269.252625,321.724396 
	C270.606842,322.459656 273.291077,322.589905 274.345306,321.739288 
	C282.309052,315.313568 296.214600,323.210205 295.070007,333.550385 
	C294.382538,339.760742 294.943695,346.109314 294.943695,352.698364 
	C291.185852,352.698364 287.947052,352.698364 284.020416,352.698364 
	C284.020416,346.984131 284.025024,341.382385 284.018311,335.780609 
	C284.015259,333.244171 284.124573,330.017975 280.730011,330.358490 
	C279.366577,330.495300 277.461517,333.717590 277.293335,335.664307 
	C276.822632,341.112244 277.129456,346.627350 277.129456,352.561584 
	C273.522949,352.561584 270.179413,352.561584 266.230042,352.561584 
	C266.230042,348.314758 266.678436,344.129211 266.092499,340.093811 
	C265.596741,336.679718 268.958527,330.344055 262.929016,330.471069 
	C257.200226,330.591736 260.486969,336.850250 259.983673,340.324982 
	C259.420380,344.214142 259.854340,348.247772 259.854340,352.611389 
	C256.232330,352.611389 253.000870,352.611389 248.364777,352.611389 
	C249.037552,343.833130 249.711807,335.035339 250.594421,325.907043 
z"/>
<path fill="#292929" opacity="1.000000" stroke="none" 
	d="
M174.088501,326.188904 
	C181.465591,319.180725 191.431015,317.641266 199.063507,322.066528 
	C206.499100,326.377625 209.517227,335.808167 206.019455,343.801483 
	C202.594070,351.629395 193.628754,355.534760 185.077972,352.768707 
	C185.077972,349.892426 185.077972,346.943542 185.077972,343.707367 
	C186.515472,343.796387 187.936035,344.000702 189.347473,343.950073 
	C193.676544,343.794830 196.669296,340.804749 196.709015,336.714355 
	C196.746597,332.843231 193.852570,329.738342 189.918076,329.428528 
	C185.759720,329.101135 182.283356,331.669006 182.059189,336.014465 
	C181.707840,342.825500 181.886307,349.664185 181.853256,356.491211 
	C181.837250,359.797546 181.850510,363.103973 181.850510,366.734802 
	C178.180817,366.734802 174.807312,366.734802 171.067307,366.734802 
	C171.067307,355.553497 170.912125,344.436432 171.194412,333.330475 
	C171.252945,331.028076 172.935760,328.766968 174.088501,326.188904 
z"/>
<path fill="#73A1E1" opacity="1.000000" stroke="none" 
	d="
M355.450684,323.376465 
	C365.326965,317.147766 374.600891,318.947510 380.178009,327.880402 
	C385.358734,336.178467 382.776764,346.210510 374.095459,351.513672 
	C368.073547,355.192261 361.008423,354.638306 355.619873,350.065216 
	C349.687286,345.030334 347.289490,337.720459 350.016144,331.394226 
	C351.227814,328.582977 353.426300,326.196991 355.450684,323.376465 
M370.868835,341.053345 
	C373.075714,335.788483 372.203735,331.985870 368.416412,330.358551 
	C365.097107,328.932343 360.849243,330.532684 360.113586,334.315613 
	C359.654144,336.678223 360.405273,340.035889 361.924591,341.846619 
	C364.234528,344.599579 367.583649,343.996490 370.868835,341.053345 
z"/>
<path fill="#2D2D2C" opacity="1.000000" stroke="none" 
	d="
M221.260315,341.315247 
	C223.610977,342.367615 225.770966,343.012970 228.183731,343.733826 
	C228.183731,346.513580 228.183731,349.612946 228.183731,352.747375 
	C224.981812,352.747375 221.936813,353.179688 219.068008,352.652771 
	C213.912033,351.705780 210.665955,348.139771 210.479187,343.008881 
	C210.112457,332.933441 210.371307,322.835236 210.371307,312.473450 
	C213.770599,312.473450 216.866425,312.473450 220.611130,312.473450 
	C220.725632,314.751221 220.845596,317.137573 220.980057,319.812286 
	C223.361053,319.952057 225.618729,320.084595 228.028687,320.226074 
	C228.028687,323.484680 228.028687,326.589386 228.028687,329.943512 
	C225.672958,329.943512 223.542618,329.943512 221.069656,329.943512 
	C221.069656,333.759155 221.069656,337.333679 221.260315,341.315247 
z"/>
<path fill="#77A3E1" opacity="1.000000" stroke="none" 
	d="
M243.554504,338.992554 
	C243.553940,343.781799 243.553940,348.073822 243.553940,352.687378 
	C239.664474,352.687378 236.277557,352.687378 232.541321,352.687378 
	C232.541321,342.004761 232.541321,331.459625 232.541321,320.392792 
	C234.393112,320.305359 236.172546,320.357849 237.909851,320.112305 
	C242.172409,319.509857 244.021408,320.971161 243.633392,325.535583 
	C243.268631,329.826691 243.555130,334.173187 243.554504,338.992554 
z"/>
<path fill="#77A3E1" opacity="1.000000" stroke="none" 
	d="
M234.958832,305.856873 
	C239.077713,304.272797 242.409012,305.488556 243.372086,309.066620 
	C243.938538,311.171143 242.637955,314.614594 240.989365,316.280121 
	C238.603607,318.690369 235.159119,318.037262 233.150696,315.229614 
	C230.819626,311.970917 231.202591,308.644379 234.958832,305.856873 
z"/>
<path fill="#F4F4F3" opacity="1.000000" stroke="none" 
	d="
M155.290466,332.195007 
	C152.737625,339.180420 147.954971,342.573792 142.200958,341.787689 
	C136.358307,340.989471 132.009338,336.219604 131.690872,330.260437 
	C131.369843,324.253174 135.024246,319.106476 140.735046,317.523132 
	C149.026505,315.224304 156.262482,322.283081 155.290466,332.195007 
z"/>
<path fill="#F4F6F7" opacity="1.000000" stroke="none" 
	d="
M370.614471,341.344421 
	C367.583649,343.996490 364.234528,344.599579 361.924591,341.846619 
	C360.405273,340.035889 359.654144,336.678223 360.113586,334.315613 
	C360.849243,330.532684 365.097107,328.932343 368.416412,330.358551 
	C372.203735,331.985870 373.075714,335.788483 370.614471,341.344421 
z"/>
</svg>